<mxfile host="app.diagrams.net" modified="2023-01-28T16:59:43.436Z" agent="5.0 (Macintosh; Intel Mac OS X 10_15_7) AppleWebKit/537.36 (KHTML, like Gecko) Chrome/109.0.0.0 Safari/537.36" etag="NQ-txXTT_93qcijZGbbl" version="20.6.0" type="github">
  <diagram id="C5RBs43oDa-KdzZeNtuy" name="Page-1">
    <mxGraphModel dx="1033" dy="752" grid="1" gridSize="10" guides="1" tooltips="1" connect="1" arrows="1" fold="1" page="1" pageScale="1" pageWidth="827" pageHeight="1169" math="0" shadow="0">
      <root>
        <mxCell id="WIyWlLk6GJQsqaUBKTNV-0" />
        <mxCell id="WIyWlLk6GJQsqaUBKTNV-1" parent="WIyWlLk6GJQsqaUBKTNV-0" />
        <mxCell id="t0A2FcLMmOzjqa1gA4VY-22" style="edgeStyle=orthogonalEdgeStyle;rounded=0;orthogonalLoop=1;jettySize=auto;html=1;entryX=0.5;entryY=0;entryDx=0;entryDy=0;" edge="1" parent="WIyWlLk6GJQsqaUBKTNV-1" source="WIyWlLk6GJQsqaUBKTNV-3" target="t0A2FcLMmOzjqa1gA4VY-1">
          <mxGeometry relative="1" as="geometry">
            <Array as="points">
              <mxPoint x="480" y="80" />
              <mxPoint x="480" y="20" />
              <mxPoint x="230" y="20" />
            </Array>
          </mxGeometry>
        </mxCell>
        <mxCell id="WIyWlLk6GJQsqaUBKTNV-3" value="Welcome Page" style="rounded=1;whiteSpace=wrap;html=1;fontSize=12;glass=0;strokeWidth=1;shadow=0;" parent="WIyWlLk6GJQsqaUBKTNV-1" vertex="1">
          <mxGeometry x="330" y="60" width="120" height="40" as="geometry" />
        </mxCell>
        <mxCell id="t0A2FcLMmOzjqa1gA4VY-11" style="edgeStyle=orthogonalEdgeStyle;rounded=0;orthogonalLoop=1;jettySize=auto;html=1;" edge="1" parent="WIyWlLk6GJQsqaUBKTNV-1" source="t0A2FcLMmOzjqa1gA4VY-1" target="WIyWlLk6GJQsqaUBKTNV-3">
          <mxGeometry relative="1" as="geometry" />
        </mxCell>
        <mxCell id="t0A2FcLMmOzjqa1gA4VY-20" style="edgeStyle=orthogonalEdgeStyle;rounded=0;orthogonalLoop=1;jettySize=auto;html=1;" edge="1" parent="WIyWlLk6GJQsqaUBKTNV-1" source="t0A2FcLMmOzjqa1gA4VY-1" target="t0A2FcLMmOzjqa1gA4VY-3">
          <mxGeometry relative="1" as="geometry" />
        </mxCell>
        <mxCell id="t0A2FcLMmOzjqa1gA4VY-1" value="Click Logo" style="rhombus;whiteSpace=wrap;html=1;shadow=0;fontFamily=Helvetica;fontSize=12;align=center;strokeWidth=1;spacing=6;spacingTop=-4;" vertex="1" parent="WIyWlLk6GJQsqaUBKTNV-1">
          <mxGeometry x="180" y="40" width="100" height="80" as="geometry" />
        </mxCell>
        <mxCell id="t0A2FcLMmOzjqa1gA4VY-23" style="edgeStyle=orthogonalEdgeStyle;rounded=0;orthogonalLoop=1;jettySize=auto;html=1;entryX=0.5;entryY=0;entryDx=0;entryDy=0;" edge="1" parent="WIyWlLk6GJQsqaUBKTNV-1" source="t0A2FcLMmOzjqa1gA4VY-2" target="t0A2FcLMmOzjqa1gA4VY-1">
          <mxGeometry relative="1" as="geometry">
            <Array as="points">
              <mxPoint x="500" y="200" />
              <mxPoint x="500" y="20" />
              <mxPoint x="230" y="20" />
            </Array>
          </mxGeometry>
        </mxCell>
        <mxCell id="t0A2FcLMmOzjqa1gA4VY-2" value="Time Table Page" style="rounded=1;whiteSpace=wrap;html=1;fontSize=12;glass=0;strokeWidth=1;shadow=0;" vertex="1" parent="WIyWlLk6GJQsqaUBKTNV-1">
          <mxGeometry x="330" y="180" width="120" height="40" as="geometry" />
        </mxCell>
        <mxCell id="t0A2FcLMmOzjqa1gA4VY-12" style="edgeStyle=orthogonalEdgeStyle;rounded=0;orthogonalLoop=1;jettySize=auto;html=1;" edge="1" parent="WIyWlLk6GJQsqaUBKTNV-1" source="t0A2FcLMmOzjqa1gA4VY-3" target="t0A2FcLMmOzjqa1gA4VY-2">
          <mxGeometry relative="1" as="geometry" />
        </mxCell>
        <mxCell id="t0A2FcLMmOzjqa1gA4VY-19" style="edgeStyle=orthogonalEdgeStyle;rounded=0;orthogonalLoop=1;jettySize=auto;html=1;" edge="1" parent="WIyWlLk6GJQsqaUBKTNV-1" source="t0A2FcLMmOzjqa1gA4VY-3" target="t0A2FcLMmOzjqa1gA4VY-5">
          <mxGeometry relative="1" as="geometry" />
        </mxCell>
        <mxCell id="t0A2FcLMmOzjqa1gA4VY-3" value="Click &lt;br&gt;Timetable&lt;br&gt;Link" style="rhombus;whiteSpace=wrap;html=1;shadow=0;fontFamily=Helvetica;fontSize=12;align=center;strokeWidth=1;spacing=6;spacingTop=-4;" vertex="1" parent="WIyWlLk6GJQsqaUBKTNV-1">
          <mxGeometry x="180" y="160" width="100" height="80" as="geometry" />
        </mxCell>
        <mxCell id="t0A2FcLMmOzjqa1gA4VY-26" style="edgeStyle=orthogonalEdgeStyle;rounded=0;orthogonalLoop=1;jettySize=auto;html=1;entryX=0.5;entryY=0;entryDx=0;entryDy=0;" edge="1" parent="WIyWlLk6GJQsqaUBKTNV-1" source="t0A2FcLMmOzjqa1gA4VY-4" target="t0A2FcLMmOzjqa1gA4VY-1">
          <mxGeometry relative="1" as="geometry">
            <Array as="points">
              <mxPoint x="520" y="320" />
              <mxPoint x="520" y="20" />
              <mxPoint x="230" y="20" />
            </Array>
          </mxGeometry>
        </mxCell>
        <mxCell id="t0A2FcLMmOzjqa1gA4VY-4" value="Activity Page" style="rounded=1;whiteSpace=wrap;html=1;fontSize=12;glass=0;strokeWidth=1;shadow=0;" vertex="1" parent="WIyWlLk6GJQsqaUBKTNV-1">
          <mxGeometry x="330" y="300" width="120" height="40" as="geometry" />
        </mxCell>
        <mxCell id="t0A2FcLMmOzjqa1gA4VY-13" style="edgeStyle=orthogonalEdgeStyle;rounded=0;orthogonalLoop=1;jettySize=auto;html=1;" edge="1" parent="WIyWlLk6GJQsqaUBKTNV-1" source="t0A2FcLMmOzjqa1gA4VY-5" target="t0A2FcLMmOzjqa1gA4VY-4">
          <mxGeometry relative="1" as="geometry" />
        </mxCell>
        <mxCell id="t0A2FcLMmOzjqa1gA4VY-18" style="edgeStyle=orthogonalEdgeStyle;rounded=0;orthogonalLoop=1;jettySize=auto;html=1;entryX=0.5;entryY=0;entryDx=0;entryDy=0;" edge="1" parent="WIyWlLk6GJQsqaUBKTNV-1" source="t0A2FcLMmOzjqa1gA4VY-5" target="t0A2FcLMmOzjqa1gA4VY-7">
          <mxGeometry relative="1" as="geometry" />
        </mxCell>
        <mxCell id="t0A2FcLMmOzjqa1gA4VY-5" value="Click &lt;br&gt;Extra Activity&lt;br&gt;Link" style="rhombus;whiteSpace=wrap;html=1;shadow=0;fontFamily=Helvetica;fontSize=12;align=center;strokeWidth=1;spacing=6;spacingTop=-4;" vertex="1" parent="WIyWlLk6GJQsqaUBKTNV-1">
          <mxGeometry x="180" y="280" width="100" height="80" as="geometry" />
        </mxCell>
        <mxCell id="t0A2FcLMmOzjqa1gA4VY-27" style="edgeStyle=orthogonalEdgeStyle;rounded=0;orthogonalLoop=1;jettySize=auto;html=1;entryX=0.5;entryY=0;entryDx=0;entryDy=0;" edge="1" parent="WIyWlLk6GJQsqaUBKTNV-1" source="t0A2FcLMmOzjqa1gA4VY-6" target="t0A2FcLMmOzjqa1gA4VY-1">
          <mxGeometry relative="1" as="geometry">
            <Array as="points">
              <mxPoint x="540" y="440" />
              <mxPoint x="540" y="20" />
              <mxPoint x="230" y="20" />
            </Array>
          </mxGeometry>
        </mxCell>
        <mxCell id="t0A2FcLMmOzjqa1gA4VY-6" value="Exam Resuts Page" style="rounded=1;whiteSpace=wrap;html=1;fontSize=12;glass=0;strokeWidth=1;shadow=0;" vertex="1" parent="WIyWlLk6GJQsqaUBKTNV-1">
          <mxGeometry x="330" y="420" width="120" height="40" as="geometry" />
        </mxCell>
        <mxCell id="t0A2FcLMmOzjqa1gA4VY-14" style="edgeStyle=orthogonalEdgeStyle;rounded=0;orthogonalLoop=1;jettySize=auto;html=1;" edge="1" parent="WIyWlLk6GJQsqaUBKTNV-1" source="t0A2FcLMmOzjqa1gA4VY-7" target="t0A2FcLMmOzjqa1gA4VY-6">
          <mxGeometry relative="1" as="geometry" />
        </mxCell>
        <mxCell id="t0A2FcLMmOzjqa1gA4VY-17" style="edgeStyle=orthogonalEdgeStyle;rounded=0;orthogonalLoop=1;jettySize=auto;html=1;" edge="1" parent="WIyWlLk6GJQsqaUBKTNV-1" source="t0A2FcLMmOzjqa1gA4VY-7" target="t0A2FcLMmOzjqa1gA4VY-9">
          <mxGeometry relative="1" as="geometry" />
        </mxCell>
        <mxCell id="t0A2FcLMmOzjqa1gA4VY-7" value="Click &lt;br&gt;Exam Results&lt;br&gt;Link" style="rhombus;whiteSpace=wrap;html=1;shadow=0;fontFamily=Helvetica;fontSize=12;align=center;strokeWidth=1;spacing=6;spacingTop=-4;" vertex="1" parent="WIyWlLk6GJQsqaUBKTNV-1">
          <mxGeometry x="180" y="400" width="100" height="80" as="geometry" />
        </mxCell>
        <mxCell id="t0A2FcLMmOzjqa1gA4VY-28" style="edgeStyle=orthogonalEdgeStyle;rounded=0;orthogonalLoop=1;jettySize=auto;html=1;entryX=0.5;entryY=0;entryDx=0;entryDy=0;" edge="1" parent="WIyWlLk6GJQsqaUBKTNV-1" source="t0A2FcLMmOzjqa1gA4VY-8" target="t0A2FcLMmOzjqa1gA4VY-1">
          <mxGeometry relative="1" as="geometry">
            <Array as="points">
              <mxPoint x="560" y="560" />
              <mxPoint x="560" y="20" />
              <mxPoint x="230" y="20" />
            </Array>
          </mxGeometry>
        </mxCell>
        <mxCell id="t0A2FcLMmOzjqa1gA4VY-8" value="Profile Page" style="rounded=1;whiteSpace=wrap;html=1;fontSize=12;glass=0;strokeWidth=1;shadow=0;" vertex="1" parent="WIyWlLk6GJQsqaUBKTNV-1">
          <mxGeometry x="330" y="540" width="120" height="40" as="geometry" />
        </mxCell>
        <mxCell id="t0A2FcLMmOzjqa1gA4VY-15" style="edgeStyle=orthogonalEdgeStyle;rounded=0;orthogonalLoop=1;jettySize=auto;html=1;" edge="1" parent="WIyWlLk6GJQsqaUBKTNV-1" source="t0A2FcLMmOzjqa1gA4VY-9" target="t0A2FcLMmOzjqa1gA4VY-8">
          <mxGeometry relative="1" as="geometry" />
        </mxCell>
        <mxCell id="t0A2FcLMmOzjqa1gA4VY-16" style="edgeStyle=orthogonalEdgeStyle;rounded=0;orthogonalLoop=1;jettySize=auto;html=1;entryX=0.5;entryY=0;entryDx=0;entryDy=0;" edge="1" parent="WIyWlLk6GJQsqaUBKTNV-1" source="t0A2FcLMmOzjqa1gA4VY-9" target="t0A2FcLMmOzjqa1gA4VY-10">
          <mxGeometry relative="1" as="geometry" />
        </mxCell>
        <mxCell id="t0A2FcLMmOzjqa1gA4VY-9" value="Click &lt;br&gt;Profile&lt;br&gt;Link" style="rhombus;whiteSpace=wrap;html=1;shadow=0;fontFamily=Helvetica;fontSize=12;align=center;strokeWidth=1;spacing=6;spacingTop=-4;" vertex="1" parent="WIyWlLk6GJQsqaUBKTNV-1">
          <mxGeometry x="180" y="520" width="100" height="80" as="geometry" />
        </mxCell>
        <mxCell id="t0A2FcLMmOzjqa1gA4VY-31" style="edgeStyle=orthogonalEdgeStyle;rounded=0;orthogonalLoop=1;jettySize=auto;html=1;entryX=0.5;entryY=0;entryDx=0;entryDy=0;" edge="1" parent="WIyWlLk6GJQsqaUBKTNV-1" source="t0A2FcLMmOzjqa1gA4VY-10" target="t0A2FcLMmOzjqa1gA4VY-1">
          <mxGeometry relative="1" as="geometry">
            <Array as="points">
              <mxPoint x="580" y="660" />
              <mxPoint x="580" y="20" />
              <mxPoint x="230" y="20" />
            </Array>
          </mxGeometry>
        </mxCell>
        <mxCell id="t0A2FcLMmOzjqa1gA4VY-10" value="Stay on Current Page" style="rounded=1;whiteSpace=wrap;html=1;fontSize=12;glass=0;strokeWidth=1;shadow=0;" vertex="1" parent="WIyWlLk6GJQsqaUBKTNV-1">
          <mxGeometry x="170" y="640" width="120" height="40" as="geometry" />
        </mxCell>
      </root>
    </mxGraphModel>
  </diagram>
</mxfile>
